<svg width="180" height="62" viewBox="0 0 180 62" fill="none" xmlns="http://www.w3.org/2000/svg">
<path fill-rule="evenodd" clip-rule="evenodd" d="M71.2787 40.7461V44.13H69.7402V46.6212H71.2787V51.1674C71.2787 54.9248 71.9235 55.0078 77.6403 55.0078V51.9145H76.9543C75.7486 51.9145 75.603 51.5618 75.603 50.5653V46.6212H77.682V44.13H75.603V40.7461H71.2787ZM85.3743 46.7249C86.4761 46.7249 87.2038 47.8667 87.2038 49.465C87.2038 51.5201 86.497 52.413 85.3326 52.413C84.2308 52.413 83.4617 51.5201 83.4617 49.465C83.4617 48.2403 83.898 46.7249 85.3743 46.7249ZM79.1374 49.6933C79.1374 53.4094 81.8399 55.3192 85.3326 55.3192C88.8253 55.3192 91.5278 53.4507 91.5278 49.465C91.5278 46.0814 89.1578 43.8185 85.3118 43.8185C81.6321 43.8185 79.1374 45.9153 79.1374 49.6933ZM105.935 46.9118C107.307 46.9118 107.765 48.0533 107.765 49.2576C107.765 50.4199 107.266 51.4993 105.935 51.4993C104.75 51.4993 104.23 50.4615 104.23 49.3821C104.23 47.9704 104.625 46.9118 105.935 46.9118ZM100.468 55.5683C100.675 57.1666 102.297 58.7028 106.143 58.7028C111.507 58.7028 111.881 56.1496 111.881 52.8903V44.13H108.076V45.5622C107.701 45.033 107.206 44.5994 106.632 44.2964C106.058 43.9935 105.42 43.8298 104.771 43.8185C101.195 43.8185 99.9061 46.6625 99.9061 49.3405C99.9061 52.1223 101.632 54.4888 104.646 54.4888C106.205 54.4888 107.141 53.9284 107.765 53.3055V54.1982C107.765 55.7552 107.266 56.3158 106.018 56.3158C105.187 56.3158 104.875 55.9419 104.812 55.5683H100.468ZM119.989 46.7249C121.091 46.7249 121.818 47.8667 121.818 49.465C121.818 51.5201 121.111 52.413 119.947 52.413C118.845 52.413 118.076 51.5201 118.076 49.465C118.076 48.2403 118.513 46.7249 119.989 46.7249ZM113.752 49.6933C113.752 53.4094 116.454 55.3192 119.947 55.3192C123.44 55.3192 126.142 53.4507 126.142 49.465C126.142 46.0814 123.772 43.8185 119.926 43.8185C116.247 43.8185 113.752 45.9153 113.752 49.6933Z" fill="white"/>
<path d="M55.4671 61.9051H50.0064C49.6415 61.8985 49.2868 61.7841 48.9871 61.5762H54.4478C54.7475 61.7841 55.1022 61.8985 55.4671 61.9051Z" fill="#858585"/>
<path d="M54.4479 61.5762H48.9871L43.2441 57.7422H48.7047L54.4479 61.5762Z" fill="#808080"/>
<path d="M48.7048 57.7414H43.2441C42.4112 57.4725 41.8692 57.3633 41.4165 57.3633H46.8772C47.3299 57.3633 47.872 57.4725 48.7048 57.7414Z" fill="#858585"/>
<path d="M43.9504 2.75928C44.0695 2.67954 44.1883 2.59931 44.3094 2.52274C44.381 2.4775 44.4542 2.43513 44.5264 2.39101C44.6362 2.32391 44.7455 2.25593 44.8568 2.19144C44.936 2.1456 45.0167 2.10274 45.0965 2.05823C45.2035 1.99863 45.3099 1.93803 45.4182 1.88084C45.4688 1.85407 45.5204 1.82907 45.5713 1.80284C45.7005 1.73635 45.83 1.67065 45.9608 1.6076C46.0284 1.57506 46.0967 1.54404 46.1647 1.51242C46.281 1.4583 46.3978 1.40497 46.5154 1.3536C46.5886 1.32167 46.6621 1.29063 46.7357 1.25976C46.851 1.21141 46.9669 1.16438 47.0833 1.11869C47.1576 1.0895 47.232 1.06048 47.3068 1.03239C47.4272 0.987149 47.5484 0.943958 47.67 0.901576C47.7407 0.876907 47.8112 0.851602 47.8822 0.827908C48.0217 0.781404 48.1623 0.737755 48.3031 0.69502C48.3566 0.678793 48.4096 0.661223 48.4633 0.645553C48.6581 0.588658 48.854 0.535333 49.0511 0.485579C49.0908 0.475608 49.1309 0.467265 49.1706 0.45759C49.3321 0.418255 49.4941 0.380433 49.657 0.346069C49.6963 0.337787 49.7358 0.330179 49.7752 0.322176C49.9408 0.288529 50.1071 0.257434 50.2741 0.22889C50.3055 0.22354 50.3368 0.217594 50.3682 0.212425C50.5561 0.181551 50.7449 0.154158 50.9344 0.130245C50.9781 0.124658 51.0219 0.119616 51.0657 0.114387C51.2417 0.0933553 51.4182 0.0750723 51.5953 0.0595375C51.6158 0.0577781 51.6362 0.0554404 51.6568 0.0537608C51.8491 0.0380012 52.0423 0.0265961 52.2358 0.0177861C52.2818 0.0156977 52.3279 0.0138416 52.374 0.012218C52.5702 0.00498005 52.7667 0 52.9639 0H47.5032C47.306 0 47.1094 0.00498168 46.9132 0.012218C46.8671 0.0139187 46.8211 0.0156879 46.7751 0.0177861C46.5815 0.0266059 46.3884 0.0379866 46.196 0.0537608C46.1755 0.0554502 46.1551 0.0577781 46.1346 0.0595375C45.9574 0.0747497 45.781 0.0933536 45.605 0.114373C45.5612 0.119603 45.5174 0.124655 45.4737 0.130242C45.2842 0.154461 45.0955 0.181854 44.9075 0.212422C44.876 0.217591 44.8448 0.223537 44.8133 0.228887C44.6464 0.257341 44.4801 0.288437 44.3145 0.322172C44.2751 0.330176 44.2356 0.337774 44.1963 0.346066C44.1714 0.351316 44.1464 0.355819 44.1215 0.361188C43.9836 0.390958 43.8468 0.424258 43.7099 0.457587C43.6702 0.467262 43.63 0.475604 43.5904 0.485576C43.3933 0.535173 43.1973 0.588498 43.0026 0.64555C42.9489 0.66122 42.8959 0.678783 42.8424 0.695017C42.7015 0.737752 42.561 0.781401 42.4215 0.827904C42.3504 0.851609 42.2799 0.876915 42.2092 0.901592C42.0877 0.943971 41.9665 0.987142 41.8462 1.03236C41.7713 1.06048 41.6969 1.08951 41.6225 1.11872C41.5061 1.16441 41.3903 1.21141 41.275 1.25973C41.2013 1.29063 41.1278 1.32168 41.0546 1.35365C40.937 1.40499 40.8204 1.45826 40.7041 1.51234C40.636 1.54399 40.5677 1.57503 40.5001 1.60762C40.3691 1.67075 40.2394 1.73651 40.1101 1.80311C40.0594 1.82924 40.008 1.85411 39.9576 1.88078C39.948 1.88581 39.9383 1.89039 39.9288 1.89544C39.8299 1.94791 39.733 2.00405 39.6353 2.05853C39.5556 2.10292 39.4751 2.14572 39.3961 2.19145C39.2848 2.25593 39.1755 2.32393 39.0656 2.39102C38.9934 2.43514 38.9202 2.47751 38.8487 2.52275C38.7276 2.59932 38.6087 2.67955 38.4896 2.75929C38.4312 2.79836 38.3717 2.83562 38.3138 2.87545C38.1378 2.99656 37.964 3.12108 37.7925 3.24902H43.2532C43.4247 3.12103 43.5984 2.9965 43.7746 2.87545C43.8325 2.83561 43.892 2.79835 43.9504 2.75928Z" fill="#8F8F8F"/>
<path d="M38.0076 59.0092H32.5468C29.0441 59.0037 25.5929 58.1658 22.4787 56.5647C19.3645 54.9636 16.6767 52.6453 14.6375 49.8014C12.6083 47.0038 11.2394 43.7838 10.6335 40.3828H16.0943C16.7002 43.7838 18.069 47.0038 20.0982 49.8014C22.1374 52.6453 24.8252 54.9636 27.9395 56.5647C31.0537 58.1658 34.5048 59.0037 38.0076 59.0092Z" fill="#858585"/>
<path d="M16.0944 40.3826H10.6337C10.0366 40.2272 9.42369 40.1401 8.80688 40.123H14.2676C14.8844 40.1401 15.4973 40.2272 16.0944 40.3826Z" fill="#858585"/>
<path d="M52.9638 0C54.311 0.000735053 55.6529 0.169676 56.9582 0.502893C65.7789 2.74759 71.1472 11.8686 68.9485 20.8752C68.3684 23.3005 67.2515 25.5651 65.6798 27.5028C64.1081 29.4404 62.1217 31.0018 59.8663 32.0722C60.8858 37.6108 59.8559 43.3306 56.9682 48.1677C55.489 50.6294 54.8772 50.1236 54.9059 53.1424L56.7169 60.0818C57.0043 61.1852 56.3292 61.9047 55.4671 61.9047C55.1022 61.8981 54.7475 61.7837 54.4478 61.5758L48.7047 57.7418C47.8718 57.4729 47.3298 57.3637 46.8771 57.3637C46.041 57.3637 45.5096 57.7365 44.0142 58.1655C42.0613 58.7254 40.0394 59.0093 38.0075 59.0088C34.5048 59.0034 31.0536 58.1654 27.9394 56.5643C24.8252 54.9632 22.1374 52.6449 20.0982 49.8011C18.069 47.0034 16.7002 43.7834 16.0943 40.3825C15.4972 40.227 14.8843 40.14 14.2675 40.1229L7.20169 41.5392C7.07426 41.5653 6.94456 41.5787 6.81449 41.5792C5.54406 41.5792 5.03785 40.1912 5.86321 39.0717L10.0883 33.3449C11.0161 30.9257 10.489 30.8729 9.98349 28.4259C8.09497 19.2492 11.7902 9.42596 19.9805 4.05982C23.4105 1.80237 27.3971 0.5324 31.5027 0.389367C35.6082 0.246334 39.6738 1.23577 43.2531 3.24902C46.0537 1.14728 49.4604 0.0074383 52.9638 0Z" fill="#E8E8E8"/>
<path d="M20.7605 3.57248C20.971 3.44635 21.1826 3.3239 21.3953 3.20511C21.431 3.18524 21.467 3.16615 21.5028 3.14649C21.6655 3.05704 21.8293 2.97115 21.9934 2.88613C22.1029 2.82938 22.2127 2.77352 22.3227 2.71857C22.4546 2.65293 22.5869 2.58883 22.7196 2.52628C22.8301 2.47394 22.9407 2.4219 23.0518 2.37151C23.1856 2.31078 23.3199 2.25226 23.4544 2.19436C23.5651 2.14672 23.6758 2.09895 23.787 2.05321C23.9235 1.99702 24.0607 1.94344 24.1979 1.89013C24.3081 1.84732 24.4181 1.80397 24.5286 1.76302C24.6686 1.71118 24.8091 1.66235 24.9496 1.61348C25.0584 1.57566 25.1669 1.53688 25.2759 1.50083C25.421 1.45289 25.5666 1.40841 25.7121 1.36358C25.8175 1.33115 25.9225 1.29731 26.0281 1.26651C26.1816 1.22173 26.3357 1.18085 26.4898 1.13949C26.5882 1.11307 26.6863 1.08481 26.7849 1.05978C26.9604 1.01523 27.1365 0.97509 27.3126 0.93495C27.39 0.917301 27.4672 0.897494 27.5447 0.880691C27.7779 0.83015 28.0116 0.784263 28.2456 0.741378C28.3117 0.729277 28.3778 0.718351 28.4439 0.706856C28.6204 0.676173 28.797 0.647623 28.9738 0.621206C29.0446 0.610668 29.1153 0.599919 29.1861 0.590065C29.4057 0.559491 29.6254 0.531582 29.8453 0.507634C29.8623 0.505785 29.8793 0.503348 29.8964 0.501529C30.1325 0.476363 30.3689 0.45606 30.6053 0.438484C30.6733 0.433422 30.7414 0.429436 30.8095 0.425002C30.9866 0.413478 31.1637 0.404065 31.3408 0.396763C31.4103 0.393909 31.4797 0.390728 31.5492 0.38852C31.786 0.380994 32.0227 0.375977 32.2592 0.375977H26.7985C26.5619 0.375967 26.3252 0.380989 26.0885 0.38852C26.019 0.390728 25.9495 0.393909 25.88 0.396763C25.7029 0.404052 25.5258 0.413465 25.3488 0.425002C25.2807 0.429436 25.2126 0.433434 25.1445 0.438484C24.908 0.456063 24.6716 0.476368 24.4353 0.501553C24.4189 0.503293 24.4026 0.505649 24.3862 0.507429C24.1657 0.531422 23.9454 0.559411 23.7253 0.590065C23.6546 0.5999 23.5841 0.610618 23.5135 0.621148C23.3363 0.647557 23.1593 0.67616 22.9825 0.706956C22.9167 0.71839 22.851 0.729258 22.7853 0.74129C22.5572 0.78308 22.3294 0.827386 22.102 0.876455C22.0959 0.877778 22.0898 0.879409 22.0837 0.88073C22.0073 0.897296 21.9312 0.916833 21.8549 0.934223C21.6777 0.974592 21.5005 1.01501 21.3238 1.05984C21.226 1.08467 21.1286 1.11273 21.031 1.13893C20.8762 1.18047 20.7214 1.22156 20.5671 1.26657C20.4618 1.29731 20.3569 1.33109 20.2518 1.36344C20.1062 1.4083 19.9604 1.45281 19.8153 1.50079C19.7062 1.53686 19.5976 1.57568 19.4888 1.61353C19.3483 1.66239 19.2078 1.71118 19.0679 1.76301C18.9574 1.80396 18.8473 1.84731 18.7372 1.89012C18.5999 1.94343 18.4628 1.997 18.3262 2.0532C18.2151 2.09894 18.1044 2.1467 17.9937 2.19435C17.8592 2.25225 17.7249 2.31076 17.591 2.3715C17.48 2.42189 17.3694 2.47391 17.2589 2.52627C17.1262 2.5891 16.9939 2.6532 16.862 2.71856C16.7519 2.77335 16.6421 2.8292 16.5326 2.88612C16.4664 2.92045 16.3995 2.95242 16.3335 2.98747C16.2359 3.03923 16.1391 3.09314 16.042 3.14648C16.0062 3.16615 15.9703 3.18522 15.9346 3.2051C15.7218 3.32358 15.5102 3.44604 15.2998 3.57247C15.2538 3.60003 15.208 3.62809 15.1621 3.65602C14.9468 3.78712 14.7323 3.9208 14.5198 4.05999C6.32946 9.42614 2.63428 19.2494 4.5228 28.4261C5.02832 30.8731 5.55538 30.9259 4.62764 33.3451L0.402518 39.0719C-0.422841 40.1913 0.0833598 41.5794 1.3538 41.5794H6.81452C5.54409 41.5794 5.03789 40.1913 5.86324 39.0719L10.0884 33.3451C11.0161 30.9259 10.489 30.8731 9.98352 28.4261C8.09501 19.2494 11.7902 9.42614 19.9805 4.05999C20.1931 3.9208 20.4075 3.78712 20.6228 3.65602C20.6687 3.6281 20.7145 3.60004 20.7605 3.57248Z" fill="#858585"/>
<path fill-rule="evenodd" clip-rule="evenodd" d="M51.4276 10.9928C54.3628 15.4917 55.6393 20.8699 55.0384 26.2057C54.4374 31.5414 51.9964 36.5022 48.1338 40.2376C44.2711 43.973 39.2275 46.2504 33.8675 46.6793C28.5076 47.1083 23.1651 45.662 18.756 42.5885C16.3423 40.9062 16.8953 40.3013 13.8211 40.1486L6.6476 41.6072C5.07496 41.9267 4.35747 40.39 5.26863 39.1639L9.52427 33.4369C10.4504 31.0241 9.91343 30.9767 9.38323 28.5462C8.2307 23.2596 8.97026 17.737 11.4733 12.9386C13.9764 8.14016 18.0845 4.36959 23.0834 2.28258C28.0823 0.195567 33.6556 -0.0758509 38.8341 1.51553C44.0127 3.1069 48.4688 6.4604 51.4276 10.9928V10.9928Z" fill="#E42125"/>
<path fill-rule="evenodd" clip-rule="evenodd" d="M54.6499 0.502564C58.4407 1.44677 61.7846 3.67836 64.1082 6.81474C66.4318 9.95112 67.5904 13.7969 67.3855 17.6929C67.1805 21.5889 65.6246 25.2923 62.9847 28.1683C60.3447 31.0443 56.7851 32.9137 52.916 33.456C50.7983 33.7529 50.7929 33.1576 49.0812 34.5951L45.9863 38.9149C45.3078 39.8617 44.1649 39.3985 44.042 38.2957L43.4695 33.1458C42.767 31.4047 42.4578 31.6444 40.9716 30.6128C37.7393 28.3688 35.3968 25.0645 34.3516 21.2745C33.3065 17.4845 33.6247 13.4486 35.251 9.86867C36.8772 6.28871 39.7087 3.39118 43.2529 1.67998C46.7971 -0.0312265 50.8299 -0.447849 54.6499 0.502564Z" fill="#2E90D1"/>
<path fill-rule="evenodd" clip-rule="evenodd" d="M21.9983 19.294C26.1008 15.9711 31.2331 14.1767 36.5154 14.2185C41.7977 14.2602 46.901 16.1355 50.9503 19.5228C54.9997 22.9102 57.7428 27.5986 58.7096 32.7843C59.6764 37.97 58.8066 43.33 56.2492 47.9454C54.8493 50.4719 54.201 49.9941 54.3657 53.0092L56.5249 59.859C56.998 61.3608 55.5676 62.2172 54.2749 61.4539L48.2367 57.8864C45.7814 57.229 45.7898 57.7577 43.4657 58.5228C38.4105 60.1869 32.9311 60.0291 27.9803 58.0769C23.0296 56.1246 18.9207 52.5013 16.3683 47.8371C13.8159 43.173 12.9815 37.7631 14.0101 32.5482C15.0387 27.3333 17.8653 22.6433 21.9983 19.294Z" fill="#78258D"/>
<path d="M53.0092 28.0312L51.3778 29.0087H40.1208L42.2417 28.0312H53.0092Z" fill="#808080"/>
<path d="M42.2846 28.313L39.9262 29.4962C39.9006 29.4925 39.8745 29.4959 39.8508 29.5063L42.2092 28.3231C42.2329 28.3127 42.259 28.3092 42.2846 28.313Z" fill="#858585"/>
<path d="M33.9717 42.1441L31.6133 43.3273C33.2425 41.9256 34.7303 40.3678 36.0553 38.6764L38.4137 37.4932C37.0887 39.1846 35.6009 40.7423 33.9717 42.1441Z" fill="#858585"/>
<path d="M47.3021 50.6024L44.9437 51.7857C44.6126 51.9659 44.2431 52.0645 43.8661 52.0732C42.8707 52.0732 41.8399 51.2987 39.8151 49.7686C37.3413 47.9046 31.737 43.6009 31.6133 43.3268L33.9717 42.1436C34.0954 42.4177 39.6997 46.7214 42.1735 48.5854C44.1983 50.1155 45.2291 50.8899 46.2245 50.8899C46.6015 50.8812 46.971 50.7827 47.3021 50.6024Z" fill="#858585"/>
<path d="M38.4137 37.4932C39.3181 38.0079 47.6005 44.3188 50.2477 46.262C51.254 46.9991 51.3135 47.5108 50.3193 48.3362C48.2648 50.0462 47.264 50.8905 46.2245 50.8905C45.2291 50.8905 44.1983 50.116 42.1735 48.5859C39.6997 46.7219 34.0954 42.4182 33.9717 42.1441C35.6009 40.7423 37.0887 39.1846 38.4137 37.4932Z" fill="white"/>
<path d="M18.2173 43.6911L15.8589 44.8743C16.2347 44.6033 18.2612 43.1382 19.4412 42.4225C24.3297 39.4619 28.7379 36.0019 31.6411 30.9672C31.7781 30.7296 31.912 30.486 32.0458 30.2393C32.3357 29.6435 32.5876 29.0301 32.8 28.4027C33.3592 26.8508 33.7888 25.2554 34.0844 23.6328L36.3684 21.8408C36.3123 22.3068 36.4459 21.7853 36.0421 24.2844C35.9114 25.0931 35.4478 26.4519 35.1584 27.2194C34.902 27.9291 34.6588 29.5367 34.0844 30.312C30.6242 34.9824 26.6881 38.2787 21.7996 41.2392C20.6196 41.955 18.5931 43.42 18.2173 43.6911Z" fill="#858585"/>
<path d="M21.5836 49.2161L19.2252 50.3993L15.8386 44.9869L18.197 43.8037L21.5836 49.2161Z" fill="#808080"/>
<path d="M52.6828 21.8408L53.0091 28.0313H42.2416C42.1712 28.0244 41.6123 29.6803 41.1993 30.7859C40.2726 33.2591 39.4503 34.505 37.8962 36.5822C35.6573 39.5702 32.8183 42.1743 29.5131 44.4769C27.6755 45.7592 23.5983 48.0832 22.1257 48.9086C21.7885 49.1035 21.5939 49.2106 21.5837 49.2162L18.1972 43.8038C18.1852 43.7861 18.1806 43.7644 18.1844 43.7434C18.1881 43.7224 18.1999 43.7036 18.2173 43.6911C18.5931 43.42 20.6197 41.955 21.7997 41.2392C26.6882 38.2787 31.0964 34.8187 33.9995 29.784C34.1365 29.5464 34.2661 29.3003 34.4042 29.056C34.9438 28.1018 35.4708 26.1196 35.7659 24.6543C36.2656 22.1725 36.3124 22.3068 36.3684 21.8408C36.3749 21.7991 52.6828 21.8408 52.6828 21.8408Z" fill="white"/>
<path d="M18.1972 43.8041L15.8388 44.9873C15.8268 44.9696 15.8222 44.948 15.826 44.9269C15.8297 44.9059 15.8415 44.8871 15.8589 44.8746L18.2173 43.6914C18.1999 43.7039 18.1881 43.7227 18.1844 43.7437C18.1806 43.7647 18.1852 43.7864 18.1972 43.8041Z" fill="#858585"/>
<path d="M48.2081 10.4512L45.8497 11.6344H44.0059L46.3643 10.4512H48.2081Z" fill="#808080"/>
<path d="M43.123 18.0702L40.7646 19.2534C39.8483 19.7096 38.8377 19.9449 37.8138 19.9402C37.7986 19.9402 37.7828 19.9402 37.7675 19.9401C34.064 19.9157 31.211 17.0496 31.1992 13.3429C31.1981 12.1324 31.5344 10.9455 32.1706 9.91502C32.8067 8.88457 33.7175 8.05128 34.801 7.50843L37.1594 6.3252C36.0759 6.86804 35.1651 7.70134 34.529 8.73178C33.8928 9.76223 33.5565 10.9491 33.5576 12.1596C33.5694 15.8664 36.4224 18.7325 40.1259 18.7569C40.1412 18.757 40.1569 18.757 40.1722 18.757C41.1961 18.7616 42.2067 18.5264 43.123 18.0702Z" fill="#858585"/>
<path d="M48.1613 5.64453L48.2081 10.4508H46.3642C46.5281 11.0235 46.6143 11.6156 46.6205 12.2113C46.6595 15.8905 43.8293 18.7568 40.1722 18.7568C40.157 18.7568 40.1412 18.7568 40.1259 18.7567C36.4224 18.7323 33.5694 15.8662 33.5576 12.1595C33.5551 10.4505 34.226 8.80917 35.4254 7.59012C36.6249 6.37107 38.2565 5.6722 39.9677 5.64453C40.1645 5.64453 40.3616 5.65062 40.5554 5.66584L48.1613 5.64453Z" fill="white"/>
<path d="M76.0544 21.0156V32.4314H82.7646V35.9058H71.1667V21.0156H76.0544Z" fill="white"/>
<path d="M88.8329 28.3994H84.6907C84.6907 27.2137 85.1601 26.3106 86.0989 25.6901C87.0377 25.0697 88.5427 24.7596 90.6139 24.7596C91.3449 24.752 92.0753 24.8004 92.7989 24.9043C93.3242 24.9734 93.8347 25.127 94.3108 25.3592C94.6581 25.5337 94.9789 25.7565 95.2635 26.021C95.5187 26.2793 95.7008 26.6004 95.7916 26.9517C95.8936 27.2965 95.9663 27.6493 96.009 28.0064C96.0478 28.4188 96.0651 28.833 96.0609 29.2473V34.3139C96.0498 34.586 96.0813 34.8582 96.1541 35.1206C96.2601 35.3545 96.4285 35.5547 96.6407 35.6995V35.9064H92.1879L91.9808 34.7483C90.9314 35.7273 89.5715 36.2167 87.9008 36.2166C86.796 36.2166 85.8744 35.9374 85.1359 35.3791C84.3971 34.8207 84.0278 34.0106 84.0278 32.949C84.0006 32.266 84.2009 31.5933 84.5975 31.0361C84.9547 30.5493 85.4538 30.1845 86.0264 29.9917C86.6358 29.7893 87.2587 29.6304 87.8906 29.516C88.5068 29.399 89.1291 29.3161 89.7545 29.268C90.2459 29.2455 90.7296 29.1369 91.1834 28.9474C91.5631 28.7752 91.753 28.5374 91.7531 28.2339C91.7531 27.6412 91.2836 27.3448 90.3447 27.3446C89.4196 27.3446 88.9156 27.6962 88.8329 28.3994ZM91.7531 31.1085C91.3014 31.3008 90.8287 31.4396 90.3447 31.522C89.858 31.6008 89.3864 31.7544 88.9467 31.9771C88.7933 32.0667 88.6682 32.1977 88.5858 32.3549C88.5035 32.5122 88.467 32.6894 88.4808 32.8664C88.4795 32.9996 88.5132 33.1308 88.5786 33.247C88.644 33.3631 88.7388 33.4601 88.8535 33.5281C89.1531 33.7071 89.499 33.7934 89.8477 33.7762C90.5654 33.7762 91.0624 33.5556 91.3388 33.1144C91.6149 32.6733 91.753 32.0047 91.7531 31.1085V31.1085Z" fill="white"/>
<path d="M102.274 25.0699V26.7657C103.268 25.4286 104.49 24.7599 105.939 24.7598C108.742 24.7598 110.144 26.3108 110.144 29.4129V35.9066H105.836V30.178C105.836 28.8271 105.332 28.1515 104.324 28.1513C103.689 28.1513 103.251 28.3375 103.009 28.7098C102.767 29.082 102.646 29.6404 102.646 30.3849V35.9066H98.3386V25.0699H102.274Z" fill="white"/>
<path d="M112.567 36.4642H116.895C116.978 36.9605 117.379 37.2087 118.097 37.2086C118.718 37.2086 119.163 37.0501 119.432 36.733C119.702 36.4157 119.836 35.8712 119.836 35.0993V34.21C119.049 34.9958 118.014 35.3887 116.729 35.3888C115.28 35.3888 114.131 34.8959 113.281 33.9101C112.432 32.9245 112.008 31.7078 112.007 30.26C112.004 29.5855 112.094 28.9137 112.277 28.2643C112.453 27.6433 112.726 27.0536 113.085 26.5167C113.464 25.9614 113.986 25.5185 114.596 25.2346C115.302 24.9051 116.075 24.7423 116.854 24.759C117.498 24.7577 118.132 24.9176 118.697 25.2241C119.272 25.5305 119.769 25.9659 120.147 26.4962V25.0691H123.937V33.7963C123.937 34.4306 123.92 34.9546 123.885 35.3681C123.843 35.8254 123.763 36.2784 123.647 36.7227C123.548 37.1596 123.354 37.5692 123.077 37.9222C122.79 38.2609 122.455 38.5568 122.083 38.801C121.601 39.1057 121.062 39.3097 120.499 39.4009C119.747 39.5337 118.984 39.596 118.221 39.587C116.439 39.587 115.079 39.2871 114.141 38.6873C113.202 38.0876 112.677 37.3466 112.567 36.4642ZM118.014 27.8404C116.881 27.8404 116.315 28.6607 116.315 30.3014C116.298 30.8345 116.45 31.3595 116.75 31.8006C116.892 32.0005 117.082 32.1613 117.303 32.268C117.524 32.3747 117.769 32.4238 118.014 32.4107C118.635 32.4107 119.094 32.197 119.391 31.7697C119.701 31.2976 119.856 30.7412 119.836 30.1772C119.859 29.5883 119.708 29.0056 119.401 28.5021C119.111 28.061 118.649 27.8404 118.014 27.8404Z" fill="white"/>
<path d="M126.215 25.0693H130.523V30.922C130.523 31.6389 130.647 32.1456 130.895 32.442C131.144 32.7386 131.537 32.8868 132.076 32.8867C132.669 32.8867 133.09 32.6729 133.339 32.2455C133.588 31.8183 133.712 31.1635 133.712 30.2809V25.0693H138.02V35.906H134.023V34.3135C133.498 35.0445 132.945 35.5442 132.366 35.8129C131.786 36.0817 131.034 36.2161 130.108 36.2162C128.893 36.2162 127.94 35.837 127.25 35.0788C126.559 34.3206 126.214 33.1832 126.215 31.6665V25.0693Z" fill="white"/>
<path d="M144.585 28.3994H140.443C140.443 27.2137 140.912 26.3106 141.851 25.6901C142.79 25.0697 144.295 24.7596 146.366 24.7596C147.097 24.752 147.828 24.8004 148.551 24.9043C149.077 24.9734 149.587 25.127 150.063 25.3592C150.411 25.5336 150.731 25.7564 151.016 26.021C151.271 26.2792 151.453 26.6003 151.544 26.9517C151.646 27.2965 151.719 27.6493 151.761 28.0064C151.8 28.4188 151.818 28.833 151.813 29.2473V34.3139C151.802 34.586 151.834 34.8581 151.906 35.1206C152.013 35.3543 152.181 35.5546 152.393 35.6995V35.9064H147.941L147.733 34.7483C146.684 35.7273 145.324 36.2167 143.653 36.2166C142.548 36.2166 141.627 35.9374 140.888 35.3791C140.15 34.8207 139.78 34.0106 139.78 32.949C139.753 32.266 139.953 31.5933 140.35 31.0361C140.707 30.5493 141.206 30.1845 141.779 29.9917C142.388 29.7893 143.011 29.6304 143.643 29.516C144.259 29.399 144.881 29.3162 145.507 29.268C145.998 29.2455 146.482 29.137 146.936 28.9474C147.316 28.7752 147.505 28.5374 147.505 28.2339C147.505 27.6412 147.036 27.3448 146.097 27.3446C145.172 27.3446 144.668 27.6962 144.585 28.3994ZM147.505 31.1085C147.054 31.3009 146.581 31.4397 146.097 31.522C145.61 31.6009 145.139 31.7544 144.699 31.9771C144.546 32.0668 144.421 32.1977 144.338 32.355C144.256 32.5122 144.22 32.6894 144.233 32.8664C144.232 32.9996 144.266 33.1309 144.331 33.247C144.396 33.3632 144.491 33.4601 144.606 33.5281C144.906 33.7071 145.251 33.7934 145.6 33.7762C146.318 33.7762 146.815 33.5556 147.091 33.1144C147.367 32.6733 147.505 32.0047 147.505 31.1085V31.1085Z" fill="white"/>
<path d="M154.236 36.4642H158.564C158.647 36.9605 159.048 37.2087 159.766 37.2086C160.387 37.2086 160.832 37.0501 161.102 36.733C161.371 36.4157 161.505 35.8712 161.506 35.0993V34.21C160.718 34.9958 159.683 35.3887 158.399 35.3888C156.949 35.3888 155.8 34.8959 154.951 33.9101C154.101 32.9245 153.677 31.7078 153.677 30.26C153.673 29.5855 153.763 28.9137 153.946 28.2643C154.122 27.6433 154.395 27.0537 154.754 26.5167C155.133 25.9615 155.655 25.5187 156.265 25.2346C156.971 24.9051 157.744 24.7424 158.523 24.759C159.167 24.7576 159.801 24.9176 160.367 25.2241C160.942 25.5305 161.438 25.9659 161.816 26.4962V25.0691H165.606V33.7963C165.606 34.4306 165.589 34.9546 165.554 35.3681C165.512 35.8254 165.433 36.2784 165.316 36.7227C165.217 37.1596 165.023 37.5692 164.747 37.9222C164.459 38.261 164.124 38.5569 163.753 38.801C163.27 39.1057 162.731 39.3097 162.168 39.4009C161.416 39.5337 160.653 39.596 159.89 39.587C158.109 39.587 156.749 39.2871 155.81 38.6873C154.871 38.0876 154.346 37.3466 154.236 36.4642ZM159.683 27.8404C158.551 27.8404 157.985 28.6607 157.985 30.3014C157.967 30.8345 158.119 31.3595 158.419 31.8006C158.561 32.0006 158.752 32.1614 158.973 32.268C159.193 32.3747 159.438 32.4238 159.683 32.4107C160.304 32.4107 160.763 32.197 161.06 31.7697C161.37 31.2976 161.526 30.7412 161.506 30.1772C161.529 29.5882 161.377 29.0055 161.07 28.5021C160.78 28.061 160.318 27.8404 159.683 27.8404Z" fill="white"/>
<path d="M180 31.4603H171.778C171.769 31.7445 171.819 32.0276 171.926 32.2912C172.033 32.5548 172.194 32.793 172.399 32.9906C172.598 33.1862 172.835 33.3401 173.094 33.4431C173.354 33.5461 173.632 33.5961 173.911 33.5903C174.684 33.5903 175.223 33.2732 175.527 32.639H179.648C179.5 33.2238 179.228 33.7696 178.849 34.2391C178.47 34.7086 177.993 35.0905 177.452 35.3586C176.269 35.9455 174.963 36.2398 173.642 36.2168C171.833 36.2168 170.352 35.7204 169.199 34.7278C168.046 33.7352 167.47 32.3565 167.47 30.5917C167.47 28.8409 168.053 27.4311 169.22 26.3625C170.387 25.2941 171.854 24.7599 173.621 24.7598C175.609 24.7598 177.169 25.363 178.302 26.5693C179.434 27.7759 180 29.4062 180 31.4603ZM171.778 29.2682H175.692C175.692 29.022 175.641 28.7786 175.543 28.5527C175.445 28.3269 175.302 28.1234 175.122 27.9549C174.95 27.7741 174.743 27.6304 174.513 27.5325C174.284 27.4347 174.036 27.3849 173.787 27.3861C173.151 27.3861 172.658 27.555 172.306 27.8928C172.127 28.0726 171.987 28.2878 171.896 28.5247C171.805 28.7616 171.765 29.0148 171.778 29.2682V29.2682Z" fill="white"/>
</svg>
