<svg width="60" height="60" viewBox="0 0 60 60" fill="none" xmlns="http://www.w3.org/2000/svg">
<circle opacity="0.2" cx="30" cy="30" r="30" fill="#78258D"/>
<path d="M17.4302 37.92C17.5774 38.29 17.8655 38.5863 18.2312 38.7439C18.5969 38.9014 19.0102 38.9072 19.3802 38.76C19.7501 38.6128 20.0465 38.3247 20.204 37.959C20.3616 37.5933 20.3674 37.18 20.2202 36.81L18.5402 32.58L28.5002 30.375V37.5C28.5002 37.8978 28.6582 38.2794 28.9395 38.5607C29.2208 38.842 29.6023 39 30.0002 39C30.398 39 30.7795 38.842 31.0608 38.5607C31.3421 38.2794 31.5002 37.8978 31.5002 37.5V30.375L41.4602 32.58L39.7802 36.81C39.7071 36.9932 39.6709 37.189 39.6736 37.3862C39.6762 37.5833 39.7178 37.7781 39.7958 37.9592C39.8738 38.1403 39.9868 38.3043 40.1282 38.4417C40.2697 38.5791 40.4369 38.6873 40.6202 38.76C40.7968 38.8298 40.9852 38.8655 41.1752 38.865C41.4756 38.8653 41.7692 38.7754 42.0179 38.6069C42.2666 38.4384 42.459 38.1991 42.5702 37.92L44.8952 32.055C44.975 31.8521 45.0096 31.6343 44.9967 31.4167C44.9837 31.1991 44.9235 30.987 44.8202 30.795C44.7199 30.6037 44.5796 30.4364 44.4087 30.3044C44.2379 30.1723 44.0405 30.0787 43.8302 30.03L39.0002 28.965V22.5C39.0002 22.1022 38.8421 21.7206 38.5608 21.4393C38.2795 21.158 37.898 21 37.5002 21H34.5002V16.5C34.5002 16.1022 34.3421 15.7206 34.0608 15.4393C33.7795 15.158 33.398 15 33.0002 15H27.0002C26.6023 15 26.2208 15.158 25.9395 15.4393C25.6582 15.7206 25.5002 16.1022 25.5002 16.5V21H22.5002C22.1023 21 21.7208 21.158 21.4395 21.4393C21.1582 21.7206 21.0002 22.1022 21.0002 22.5V28.965L16.1702 30C15.9598 30.0487 15.7625 30.1423 15.5916 30.2744C15.4207 30.4064 15.2804 30.5737 15.1802 30.765C15.0769 30.957 15.0166 31.1691 15.0037 31.3867C14.9907 31.6043 15.0254 31.8221 15.1052 32.025L17.4302 37.92ZM28.5002 18H31.5002V21H28.5002V18ZM24.0002 24H36.0002V28.29L30.3302 27H30.1802H30.0002H29.8202H29.6702L24.0002 28.29V24ZM43.0652 40.92C42.5389 41.0813 42.0349 41.3081 41.5652 41.595C41.0873 41.8744 40.5437 42.0217 39.9902 42.0217C39.4366 42.0217 38.893 41.8744 38.4152 41.595C37.3761 41.0088 36.2032 40.7008 35.0102 40.7008C33.8171 40.7008 32.6443 41.0088 31.6052 41.595C31.1208 41.8712 30.5728 42.0165 30.0152 42.0165C29.4576 42.0165 28.9096 41.8712 28.4252 41.595C27.3851 41.0116 26.2127 40.7052 25.0202 40.7052C23.8277 40.7052 22.6552 41.0116 21.6152 41.595C21.1373 41.8744 20.5937 42.0217 20.0402 42.0217C19.4866 42.0217 18.943 41.8744 18.4652 41.595C17.9954 41.3081 17.4915 41.0813 16.9652 40.92C16.7656 40.849 16.5532 40.8212 16.3421 40.8382C16.1309 40.8552 15.9258 40.9168 15.7402 41.0188C15.5545 41.1208 15.3926 41.261 15.2651 41.4301C15.1375 41.5993 15.0472 41.7935 15.0002 42C14.8882 42.3799 14.931 42.7887 15.1193 43.1371C15.3076 43.4856 15.626 43.7455 16.0052 43.86C16.3072 43.9418 16.5954 44.0682 16.8602 44.235C17.7702 44.769 18.805 45.0536 19.8602 45.06C20.9561 45.0602 22.0325 44.7704 22.9802 44.22C23.5681 43.8957 24.2287 43.7255 24.9002 43.7255C25.5717 43.7255 26.2322 43.8957 26.8202 44.22C27.7611 44.758 28.8263 45.0411 29.9102 45.0411C30.9941 45.0411 32.0592 44.758 33.0002 44.22C33.5881 43.8957 34.2487 43.7255 34.9202 43.7255C35.5917 43.7255 36.2522 43.8957 36.8402 44.22C37.7699 44.7749 38.8324 45.0679 39.9152 45.0679C40.9979 45.0679 42.0604 44.7749 42.9902 44.22C43.255 44.0532 43.5431 43.9268 43.8452 43.845C44.0448 43.8046 44.2341 43.724 44.4015 43.6081C44.569 43.4922 44.7111 43.3433 44.8192 43.1707C44.9272 42.9981 44.999 42.8053 45.0301 42.604C45.0612 42.4027 45.0511 42.1972 45.0002 42C44.9525 41.797 44.863 41.6062 44.7375 41.4397C44.6119 41.2732 44.453 41.1347 44.2709 41.0331C44.0889 40.9315 43.8876 40.8689 43.68 40.8495C43.4724 40.83 43.263 40.854 43.0652 40.92Z" fill="#78258D"/>
</svg>
