<svg width="60" height="60" viewBox="0 0 60 60" fill="none" xmlns="http://www.w3.org/2000/svg">
<circle opacity="0.2" cx="30" cy="30" r="30" fill="#2E90D1"/>
<path d="M46.8168 25.9833L45.1501 25.0666L30.1501 16.7333H29.9668C29.8646 16.6901 29.7586 16.6566 29.6501 16.6333H29.3335H29.0335C28.9196 16.6566 28.808 16.6901 28.7001 16.7333H28.5168L13.5168 25.0666C13.2603 25.212 13.0469 25.4228 12.8985 25.6775C12.7501 25.9323 12.6719 26.2218 12.6719 26.5166C12.6719 26.8115 12.7501 27.101 12.8985 27.3557C13.0469 27.6105 13.2603 27.8213 13.5168 27.9666L17.6668 30.2666V38.1666C17.6668 39.4927 18.1936 40.7645 19.1313 41.7022C20.0689 42.6399 21.3407 43.1666 22.6668 43.1666H36.0001C37.3262 43.1666 38.598 42.6399 39.5357 41.7022C40.4733 40.7645 41.0001 39.4927 41.0001 38.1666V30.2666L44.3335 28.4V33.1666C44.3335 33.6087 44.5091 34.0326 44.8216 34.3451C45.1342 34.6577 45.5581 34.8333 46.0001 34.8333C46.4422 34.8333 46.8661 34.6577 47.1786 34.3451C47.4912 34.0326 47.6668 33.6087 47.6668 33.1666V27.4333C47.6663 27.138 47.5873 26.8481 47.438 26.5933C47.2886 26.3385 47.0742 26.128 46.8168 25.9833ZM37.6668 38.1666C37.6668 38.6087 37.4912 39.0326 37.1786 39.3451C36.8661 39.6577 36.4422 39.8333 36.0001 39.8333H22.6668C22.2248 39.8333 21.8008 39.6577 21.4883 39.3451C21.1757 39.0326 21.0001 38.6087 21.0001 38.1666V32.1166L28.5168 36.2833L28.7668 36.3833H28.9168C29.0551 36.4007 29.1951 36.4007 29.3335 36.3833C29.4718 36.4007 29.6118 36.4007 29.7501 36.3833H29.9001C29.9886 36.3646 30.0732 36.3308 30.1501 36.2833L37.6668 32.1166V38.1666ZM29.3335 32.9333L17.7668 26.5L29.3335 20.0666L40.9001 26.5L29.3335 32.9333Z" fill="#2E90D1"/>
</svg>
