<svg width="60" height="60" viewBox="0 0 60 60" fill="none" xmlns="http://www.w3.org/2000/svg">
<circle opacity="0.2" cx="30" cy="30" r="30" fill="#E42125"/>
<path d="M37.5 22.5H22.5C22.1022 22.5 21.7206 22.658 21.4393 22.9393C21.158 23.2206 21 23.6022 21 24C21 24.3978 21.158 24.7794 21.4393 25.0607C21.7206 25.342 22.1022 25.5 22.5 25.5H37.5C37.8978 25.5 38.2794 25.342 38.5607 25.0607C38.842 24.7794 39 24.3978 39 24C39 23.6022 38.842 23.2206 38.5607 22.9393C38.2794 22.658 37.8978 22.5 37.5 22.5ZM37.5 28.5H22.5C22.1022 28.5 21.7206 28.658 21.4393 28.9393C21.158 29.2206 21 29.6022 21 30C21 30.3978 21.158 30.7794 21.4393 31.0607C21.7206 31.342 22.1022 31.5 22.5 31.5H37.5C37.8978 31.5 38.2794 31.342 38.5607 31.0607C38.842 30.7794 39 30.3978 39 30C39 29.6022 38.842 29.2206 38.5607 28.9393C38.2794 28.658 37.8978 28.5 37.5 28.5ZM40.5 15H19.5C18.3065 15 17.1619 15.4741 16.318 16.318C15.4741 17.1619 15 18.3065 15 19.5V34.5C15 35.6935 15.4741 36.8381 16.318 37.682C17.1619 38.5259 18.3065 39 19.5 39H36.885L42.435 44.565C42.5752 44.704 42.7414 44.814 42.9241 44.8887C43.1069 44.9633 43.3026 45.0011 43.5 45C43.6968 45.0051 43.892 44.964 44.07 44.88C44.3439 44.7675 44.5784 44.5764 44.7439 44.3308C44.9094 44.0852 44.9985 43.7961 45 43.5V19.5C45 18.3065 44.5259 17.1619 43.682 16.318C42.8381 15.4741 41.6935 15 40.5 15ZM42 39.885L38.565 36.435C38.4248 36.296 38.2586 36.186 38.0759 36.1113C37.8931 36.0367 37.6974 35.9989 37.5 36H19.5C19.1022 36 18.7206 35.842 18.4393 35.5607C18.158 35.2794 18 34.8978 18 34.5V19.5C18 19.1022 18.158 18.7206 18.4393 18.4393C18.7206 18.158 19.1022 18 19.5 18H40.5C40.8978 18 41.2794 18.158 41.5607 18.4393C41.842 18.7206 42 19.1022 42 19.5V39.885Z" fill="#E42125"/>
</svg>
