<svg width="120" height="40" viewBox="0 0 120 40" fill="none" xmlns="http://www.w3.org/2000/svg">
<g clip-path="url(#clip0_1890_4962)">
<path fill-rule="evenodd" clip-rule="evenodd" d="M47.519 26.3285V28.515H46.4934V30.1247H47.519V33.0622C47.519 35.4901 47.9489 35.5437 51.7601 35.5437V33.545H51.3028C50.499 33.545 50.4019 33.317 50.4019 32.6732V30.1247H51.7879V28.515H50.4019V26.3285H47.519ZM56.9161 30.1917C57.6507 30.1917 58.1358 30.9295 58.1358 31.9622C58.1358 33.2901 57.6646 33.8671 56.8883 33.8671C56.1538 33.8671 55.6411 33.2901 55.6411 31.9622C55.6411 31.1709 55.9319 30.1917 56.9161 30.1917ZM52.7582 32.1097C52.7582 34.5109 54.5598 35.7449 56.8883 35.7449C59.2168 35.7449 61.0185 34.5376 61.0185 31.9622C61.0185 29.7759 59.4384 28.3137 56.8744 28.3137C54.4213 28.3137 52.7582 29.6686 52.7582 32.1097V32.1097ZM70.6232 30.3124C71.5379 30.3124 71.8429 31.05 71.8429 31.8282C71.8429 32.5792 71.5104 33.2767 70.6232 33.2767C69.8333 33.2767 69.4869 32.6061 69.4869 31.9087C69.4869 30.9965 69.7502 30.3124 70.6232 30.3124ZM66.9783 35.9059C67.1167 36.9386 68.1977 37.9312 70.7619 37.9312C74.3377 37.9312 74.5871 36.2815 74.5871 34.1755V28.515H72.0509V29.4404C71.8007 29.0985 71.4708 28.8183 71.088 28.6225C70.7051 28.4268 70.2801 28.321 69.8472 28.3137C67.4632 28.3137 66.604 30.1513 66.604 31.8818C66.604 33.6793 67.7543 35.2084 69.7641 35.2084C70.8034 35.2084 71.4272 34.8462 71.8429 34.4437V35.0206C71.8429 36.0267 71.5104 36.3889 70.6788 36.3889C70.1244 36.3889 69.9164 36.1473 69.8747 35.9059H66.9783ZM79.9925 30.1917C80.727 30.1917 81.2121 30.9295 81.2121 31.9622C81.2121 33.2901 80.7409 33.8671 79.9647 33.8671C79.2301 33.8671 78.7174 33.2901 78.7174 31.9622C78.7174 31.1709 79.0083 30.1917 79.9925 30.1917ZM75.8345 32.1097C75.8345 34.5109 77.6362 35.7449 79.9647 35.7449C82.2931 35.7449 84.0948 34.5376 84.0948 31.9622C84.0948 29.7759 82.5148 28.3137 79.9508 28.3137C77.4977 28.3137 75.8345 29.6686 75.8345 32.1097V32.1097Z" fill="#040404"/>
<path d="M36.978 40H33.3375C33.0943 39.9958 32.8578 39.9218 32.658 39.7875H36.2985C36.4983 39.9218 36.7347 39.9958 36.978 40" fill="#858585"/>
<path d="M36.2985 39.7874H32.658L28.8293 37.3101H32.4697L36.2985 39.7874Z" fill="#808080"/>
<path d="M32.4697 37.3101H28.8292C28.274 37.1364 27.9126 37.0658 27.6108 37.0658H31.2513C31.5531 37.0658 31.9145 37.1364 32.4697 37.3101Z" fill="#858585"/>
<path d="M29.3001 1.78297C29.3795 1.73144 29.4587 1.6796 29.5394 1.63013C29.5871 1.60089 29.636 1.57352 29.6841 1.54501C29.7573 1.50165 29.8302 1.45772 29.9044 1.41605C29.9571 1.38644 30.011 1.35874 30.0642 1.32998C30.1355 1.29147 30.2064 1.25231 30.2786 1.21536C30.3124 1.19806 30.3468 1.18191 30.3807 1.16496C30.4668 1.12199 30.5532 1.07955 30.6404 1.03881C30.6854 1.01778 30.731 0.997733 30.7763 0.977303C30.8539 0.942332 30.9317 0.907877 31.0101 0.87468C31.0589 0.854049 31.1079 0.833993 31.157 0.814049C31.2338 0.782805 31.3111 0.752419 31.3887 0.722891C31.4383 0.704034 31.4879 0.685281 31.5377 0.66713C31.618 0.637898 31.6988 0.609989 31.7798 0.582604C31.827 0.566664 31.8739 0.550314 31.9213 0.535003C32.0143 0.504955 32.108 0.476751 32.2019 0.449137C32.2376 0.438652 32.2729 0.4273 32.3087 0.417174C32.4386 0.380411 32.5692 0.345955 32.7006 0.313806C32.727 0.307363 32.7538 0.301973 32.7803 0.295721C32.8879 0.270305 32.9959 0.245866 33.1045 0.223662C33.1307 0.21831 33.1571 0.213394 33.1833 0.208223C33.2937 0.186482 33.4046 0.166389 33.5159 0.147946C33.5368 0.144489 33.5577 0.140647 33.5786 0.137307C33.7039 0.117358 33.8297 0.0996575 33.9561 0.0842063C33.9852 0.0805958 34.0144 0.0773379 34.0436 0.073959C34.161 0.0603696 34.2787 0.0485559 34.3967 0.0385181C34.4104 0.0373812 34.424 0.0358707 34.4377 0.0347854C34.5659 0.0246023 34.6947 0.0172329 34.8237 0.0115403C34.8544 0.0101908 34.8851 0.00899151 34.9158 0.00794239C35.0466 0.00326557 35.1776 4.76837e-05 35.3091 4.76837e-05H31.6686C31.5371 4.76837e-05 31.4061 0.00326662 31.2753 0.00794239C31.2446 0.00904133 31.2139 0.0101845 31.1832 0.0115403C31.0542 0.0172392 30.9254 0.0245928 30.7972 0.0347854C30.7835 0.035877 30.7699 0.0373812 30.7562 0.0385181C30.6381 0.0483475 30.5205 0.0603685 30.4032 0.0739506C30.374 0.0773295 30.3448 0.0805937 30.3156 0.0842042C30.1893 0.0998533 30.0635 0.117554 29.9382 0.137305C29.9172 0.140645 29.8963 0.144487 29.8754 0.147944C29.7641 0.16633 29.6532 0.186422 29.5428 0.208221C29.5166 0.213392 29.4903 0.218302 29.4641 0.223659C29.4475 0.227052 29.4307 0.229962 29.4142 0.233431C29.3222 0.252667 29.231 0.274183 29.1398 0.295719C29.1133 0.301971 29.0865 0.307361 29.0601 0.313804C28.9287 0.345852 28.798 0.380308 28.6682 0.417172C28.6324 0.427298 28.5971 0.438646 28.5614 0.449135C28.4675 0.476749 28.3738 0.504953 28.2808 0.535001C28.2334 0.550318 28.1864 0.56667 28.1393 0.582615C28.0583 0.609998 27.9775 0.637894 27.8973 0.667113C27.8474 0.685283 27.7978 0.704036 27.7482 0.722912C27.6706 0.752434 27.5934 0.782806 27.5165 0.814028C27.4674 0.833996 27.4184 0.854054 27.3695 0.874716C27.2912 0.907886 27.2134 0.94231 27.1359 0.977254C27.0905 0.997704 27.045 1.01776 26.9999 1.03882C26.9126 1.07961 26.8261 1.1221 26.7399 1.16513C26.7061 1.18202 26.6718 1.19809 26.6382 1.21532C26.6319 1.21857 26.6254 1.22153 26.619 1.2248C26.5531 1.2587 26.4885 1.29497 26.4234 1.33017C26.3702 1.35886 26.3165 1.38651 26.2639 1.41606C26.1897 1.45772 26.1168 1.50166 26.0436 1.54502C25.9955 1.57352 25.9466 1.6009 25.8989 1.63013C25.8182 1.67961 25.739 1.73145 25.6596 1.78297C25.6207 1.80822 25.581 1.8323 25.5424 1.85803C25.425 1.93629 25.3092 2.01675 25.1948 2.09942H28.8353C28.9496 2.01671 29.0655 1.93625 29.1829 1.85803C29.2215 1.83229 29.2612 1.80822 29.3001 1.78297Z" fill="#8F8F8F"/>
<path d="M25.3385 38.1288H21.698C19.3628 38.1253 17.062 37.5839 14.9859 36.5493C12.9098 35.5147 11.1179 34.0167 9.75841 32.1792C8.4056 30.3715 7.49304 28.2909 7.08911 26.0933H10.7296C11.1335 28.2909 12.0461 30.3715 13.3989 32.1792C14.7584 34.0167 16.5502 35.5147 18.6264 36.5493C20.7025 37.5839 23.0033 38.1253 25.3385 38.1288Z" fill="#858585"/>
<path d="M10.7294 26.0933H7.08894C6.69087 25.9929 6.2823 25.9366 5.87109 25.9256H9.51158C9.92279 25.9366 10.3314 25.9929 10.7294 26.0933" fill="#858585"/>
<path d="M35.3091 4.673e-05C36.2073 0.000521687 37.1018 0.109684 37.972 0.324993C43.8525 1.77541 47.4314 7.66896 45.9656 13.4886C45.5788 15.0557 44.8342 16.519 43.7865 17.7711C42.7387 19.0231 41.4144 20.032 39.9108 20.7236C40.5905 24.3024 39.9039 27.9983 37.9787 31.1238C36.9926 32.7144 36.5847 32.3876 36.6039 34.3382L37.8112 38.8221C38.0028 39.5351 37.5527 40 36.978 40C36.7347 39.9958 36.4983 39.9218 36.2984 39.7875L32.4697 37.3101C31.9145 37.1364 31.5531 37.0658 31.2513 37.0658C30.6939 37.0658 30.3396 37.3067 29.3427 37.5839C28.0408 37.9457 26.6929 38.1291 25.3383 38.1288C23.0031 38.1253 20.7024 37.5839 18.6262 36.5493C16.5501 35.5147 14.7582 34.0168 13.3987 32.1792C12.0459 30.3715 11.1334 28.2909 10.7294 26.0933C10.3314 25.9929 9.92279 25.9367 9.51158 25.9256L4.80105 26.8408C4.71609 26.8576 4.62963 26.8663 4.54291 26.8666C3.69596 26.8666 3.35849 25.9697 3.90872 25.2464L6.72547 21.546C7.34397 19.9828 6.99259 19.9487 6.65558 18.3676C5.39656 12.438 7.86002 6.09067 13.3202 2.62331C15.6069 1.16465 18.2647 0.344059 21.0017 0.251638C23.7387 0.159216 26.4491 0.798545 28.8353 2.09942C30.7024 0.741368 32.9735 0.00485301 35.3091 4.673e-05V4.673e-05Z" fill="#E8E8E8"/>
<path d="M13.8404 2.30829C13.9806 2.22679 14.1217 2.14767 14.2635 2.07091C14.2874 2.05807 14.3113 2.04574 14.3352 2.03303C14.4437 1.97524 14.5529 1.91974 14.6622 1.8648C14.7353 1.82813 14.8084 1.79204 14.8818 1.75653C14.9697 1.71412 15.0579 1.6727 15.1464 1.63229C15.2201 1.59847 15.2938 1.56484 15.3678 1.53228C15.457 1.49304 15.5466 1.45523 15.6363 1.41782C15.7101 1.38703 15.7839 1.35616 15.858 1.32661C15.949 1.2903 16.0405 1.25568 16.1319 1.22123C16.2054 1.19357 16.2787 1.16556 16.3524 1.1391C16.4457 1.10561 16.5394 1.07405 16.6331 1.04248C16.7056 1.01804 16.7779 0.99298 16.8506 0.969684C16.9473 0.938711 17.0444 0.909967 17.1414 0.881004C17.2116 0.860046 17.2817 0.838183 17.3521 0.818279C17.4544 0.789342 17.5572 0.762931 17.6598 0.736203C17.7254 0.719133 17.7909 0.700874 17.8566 0.684702C17.9736 0.655913 18.091 0.629977 18.2084 0.604041C18.26 0.592637 18.3114 0.579839 18.3631 0.568981C18.5186 0.536324 18.6744 0.506674 18.8304 0.478963C18.8744 0.471144 18.9186 0.464084 18.9626 0.456657C19.0803 0.436831 19.198 0.418384 19.3159 0.401314C19.3631 0.394505 19.4102 0.387559 19.4574 0.381192C19.6038 0.361436 19.7503 0.343403 19.8969 0.327929C19.9082 0.326734 19.9196 0.32516 19.9309 0.323984C20.0884 0.307723 20.2459 0.294604 20.4035 0.283247C20.4489 0.279977 20.4943 0.277401 20.5397 0.274536C20.6577 0.267089 20.7758 0.261007 20.8938 0.256289C20.9402 0.254445 20.9865 0.252389 21.0328 0.250963C21.1906 0.2461 21.3484 0.242858 21.5061 0.242858H17.8656C17.708 0.242852 17.5501 0.246097 17.3923 0.250963C17.346 0.252389 17.2997 0.254445 17.2533 0.256289C17.1353 0.260999 17.0172 0.267081 16.8992 0.274536C16.8538 0.277401 16.8084 0.279984 16.763 0.283247C16.6054 0.294606 16.4477 0.307726 16.2902 0.324C16.2793 0.325124 16.2684 0.326646 16.2575 0.327797C16.1105 0.3433 15.9636 0.361385 15.8169 0.381192C15.7698 0.387547 15.7227 0.394472 15.6756 0.401276C15.5575 0.418341 15.4395 0.436822 15.3216 0.456721C15.2778 0.46411 15.234 0.471132 15.1902 0.478906C15.0381 0.50591 14.8862 0.534538 14.7347 0.566244C14.7306 0.567099 14.7266 0.568152 14.7225 0.569006C14.6715 0.57971 14.6208 0.592334 14.5699 0.603571C14.4518 0.629655 14.3337 0.655772 14.2159 0.684741C14.1507 0.700783 14.0858 0.718915 14.0207 0.735843C13.9175 0.762685 13.8143 0.789234 13.7114 0.818318C13.6412 0.838183 13.5713 0.860008 13.5012 0.880914C13.4041 0.909896 13.307 0.938659 13.2102 0.969659C13.1374 0.992968 13.065 1.01805 12.9925 1.04251C12.8989 1.07408 12.8052 1.10561 12.7119 1.13909C12.6382 1.16556 12.5649 1.19357 12.4914 1.22123C12.4 1.25567 12.3085 1.29029 12.2175 1.3266C12.1434 1.35616 12.0696 1.38702 11.9958 1.41781C11.9061 1.45522 11.8166 1.49302 11.7274 1.53227C11.6533 1.56483 11.5796 1.59845 11.5059 1.63228C11.4175 1.67288 11.3293 1.71429 11.2413 1.75653C11.1679 1.79193 11.0947 1.82802 11.0218 1.8648C10.9776 1.88698 10.933 1.90764 10.889 1.93028C10.824 1.96373 10.7594 1.99857 10.6947 2.03303C10.6708 2.04574 10.6469 2.05806 10.6231 2.07091C10.4812 2.14747 10.3401 2.22659 10.1999 2.30828C10.1692 2.32609 10.1387 2.34422 10.1081 2.36227C9.96454 2.44698 9.82156 2.53336 9.67984 2.6233C4.21964 6.09065 1.75618 12.438 3.0152 18.3676C3.35221 19.9487 3.70359 19.9828 3.08509 21.546L0.268345 25.2464C-0.281894 25.9697 0.0555732 26.8666 0.902532 26.8666H4.54301C3.69606 26.8666 3.35859 25.9697 3.90883 25.2464L6.72557 21.546C7.34408 19.9828 6.9927 19.9487 6.65568 18.3676C5.39667 12.438 7.86013 6.09065 13.3203 2.6233C13.462 2.53336 13.605 2.44698 13.7486 2.36227C13.7792 2.34423 13.8097 2.3261 13.8404 2.30829Z" fill="#858585"/>
<path fill-rule="evenodd" clip-rule="evenodd" d="M34.285 7.10326C36.2418 10.0102 37.0928 13.4854 36.6922 16.9331C36.2915 20.3808 34.6642 23.5862 32.0891 25.9999C29.514 28.4135 26.1516 29.8851 22.5783 30.1622C19.005 30.4394 15.4433 29.5049 12.5039 27.5189C10.8948 26.4319 11.2635 26.041 9.21398 25.9424L4.43165 26.8849C3.38323 27.0913 2.9049 26.0984 3.51234 25.3061L6.34943 21.6056C6.96685 20.0465 6.60887 20.0159 6.25541 18.4454C5.48705 15.0295 5.98009 11.461 7.64879 8.36051C9.31749 5.26 12.0563 2.82363 15.3889 1.4751C18.7214 0.126572 22.437 -0.0488057 25.8893 0.979468C29.3417 2.00774 32.3125 4.17462 34.285 7.10326V7.10326Z" fill="#E42125"/>
<path fill-rule="evenodd" clip-rule="evenodd" d="M36.4332 0.325146C38.9604 0.935251 41.1896 2.3772 42.7387 4.40378C44.2878 6.43037 45.0602 8.91536 44.9236 11.4328C44.7869 13.9501 43.7497 16.3431 41.9897 18.2014C40.2297 20.0598 37.8567 21.2677 35.2773 21.6181C33.8655 21.81 33.8619 21.4253 32.7207 22.3542L30.6575 25.1454C30.2051 25.7572 29.4432 25.4579 29.3613 24.7453L28.9796 21.4177C28.5113 20.2927 28.3051 20.4476 27.3143 19.781C25.1594 18.331 23.5978 16.1959 22.901 13.747C22.2042 11.2981 22.4164 8.69029 23.5006 6.37709C24.5847 4.06389 26.4724 2.19164 28.8352 1.08594C31.198 -0.0197648 33.8865 -0.288967 36.4332 0.325146V0.325146Z" fill="#2E90D1"/>
<path fill-rule="evenodd" clip-rule="evenodd" d="M14.6654 12.4667C17.4004 10.3196 20.822 9.16015 24.3435 9.18712C27.8651 9.2141 31.2672 10.4258 33.9668 12.6146C36.6664 14.8033 38.4951 17.8327 39.1397 21.1835C39.7842 24.5342 39.2043 27.9976 37.4994 30.9799C36.5661 32.6124 36.1339 32.3037 36.2437 34.2519L37.6832 38.6779C37.9986 39.6483 37.045 40.2017 36.1832 39.7085L32.1577 37.4033C30.5209 36.9786 30.5265 37.3201 28.977 37.8145C25.6069 38.8898 21.954 38.7879 18.6535 37.5264C15.353 36.2649 12.6137 33.9237 10.9121 30.9099C9.21054 27.8962 8.65424 24.4005 9.33997 21.0309C10.0257 17.6613 11.9101 14.6309 14.6654 12.4667V12.4667Z" fill="#78258D"/>
<path d="M35.3393 18.1123L34.2517 18.7439H26.7471L28.161 18.1123H35.3393Z" fill="#808080"/>
<path d="M28.1899 18.2942L26.6176 19.0588C26.6006 19.0563 26.5832 19.0586 26.5674 19.0653L28.1396 18.3007C28.1554 18.294 28.1728 18.2918 28.1899 18.2942Z" fill="#858585"/>
<path d="M22.6477 27.2312L21.0754 27.9957C22.1616 27.09 23.1534 26.0834 24.0368 24.9905L25.6091 24.226C24.7257 25.3189 23.7338 26.3254 22.6477 27.2312" fill="#858585"/>
<path d="M31.5347 32.6969L29.9624 33.4615C29.7416 33.5779 29.4953 33.6416 29.244 33.6473C28.5804 33.6473 27.8932 33.1468 26.5433 32.1582C24.8941 30.9537 21.1579 28.1729 21.0754 27.9957L22.6477 27.2312C22.7302 27.4083 26.4664 30.1892 28.1156 31.3936C29.4655 32.3823 30.1527 32.8827 30.8162 32.8827C31.0676 32.8771 31.3139 32.8134 31.5347 32.6969" fill="#858585"/>
<path d="M25.6091 24.226C26.212 24.5586 31.7336 28.6364 33.4984 29.892C34.1692 30.3683 34.2089 30.6989 33.5461 31.2322C32.1764 32.3372 31.5093 32.8827 30.8162 32.8827C30.1527 32.8827 29.4655 32.3823 28.1156 31.3936C26.4664 30.1892 22.7302 27.4083 22.6477 27.2312C23.7339 26.3254 24.7257 25.3189 25.6091 24.226V24.226Z" fill="white"/>
<path d="M12.1448 28.2308L10.5725 28.9953C10.8231 28.8202 12.1741 27.8735 12.9608 27.411C16.2197 25.4981 19.1585 23.2624 21.094 20.0092C21.1853 19.8557 21.2746 19.6982 21.3638 19.5388C21.5571 19.1539 21.725 18.7575 21.8666 18.3521C22.2394 17.3493 22.5258 16.3185 22.7228 15.27L24.2455 14.1121C24.2081 14.4132 24.2972 14.0762 24.028 15.6911C23.9409 16.2136 23.6318 17.0916 23.4388 17.5875C23.2679 18.0461 23.1058 19.0848 22.7228 19.5858C20.416 22.6036 17.792 24.7335 14.533 26.6465C13.7463 27.109 12.3953 28.0556 12.1448 28.2308" fill="#858585"/>
<path d="M14.389 31.801L12.8168 32.5656L10.5591 29.0683L12.1314 28.3038L14.389 31.801Z" fill="#808080"/>
<path d="M35.1219 14.1123L35.3394 18.1123H28.1611C28.1141 18.1079 27.7416 19.1778 27.4662 19.8922C26.8484 21.4903 26.3002 22.2953 25.2641 23.6375C23.7715 25.5682 21.8789 27.2509 19.6754 28.7387C18.4503 29.5673 15.7322 31.0689 14.7504 31.6022C14.5257 31.7282 14.3959 31.7974 14.3891 31.801L12.1315 28.3038C12.1235 28.2923 12.1204 28.2783 12.1229 28.2647C12.1254 28.2511 12.1333 28.239 12.1449 28.231C12.3954 28.0558 13.7464 27.1092 14.5331 26.6467C17.7921 24.7337 20.7309 22.498 22.6663 19.2448C22.7576 19.0913 22.8441 18.9323 22.9361 18.7744C23.2959 18.1579 23.6472 16.8771 23.8439 15.9302C24.1771 14.3266 24.2082 14.4134 24.2456 14.1123C24.2499 14.0853 35.1219 14.1123 35.1219 14.1123Z" fill="white"/>
<path d="M12.1315 28.3038L10.5592 29.0683C10.5512 29.0569 10.5482 29.0429 10.5507 29.0293C10.5532 29.0157 10.561 29.0036 10.5726 28.9955L12.1449 28.2309C12.1333 28.239 12.1254 28.2511 12.1229 28.2647C12.1204 28.2783 12.1235 28.2923 12.1315 28.3038" fill="#858585"/>
<path d="M32.1389 6.75303L30.5666 7.51755H29.3374L30.9097 6.75303H32.1389Z" fill="#808080"/>
<path d="M28.7487 11.6762L27.1765 12.4407C26.5656 12.7355 25.8919 12.8875 25.2093 12.8845C25.1991 12.8845 25.1886 12.8845 25.1784 12.8844C22.7094 12.8687 20.8074 11.0167 20.7996 8.62159C20.7988 7.83942 21.023 7.07249 21.4471 6.40666C21.8712 5.74083 22.4784 5.2024 23.2008 4.85163L24.773 4.08708C24.0507 4.43784 23.4435 4.97628 23.0194 5.6421C22.5953 6.30793 22.3711 7.07486 22.3718 7.85703C22.3797 10.2522 24.2817 12.1041 26.7507 12.1198C26.7609 12.1199 26.7714 12.1199 26.7816 12.1199C27.4641 12.1229 28.1379 11.9709 28.7487 11.6762" fill="#858585"/>
<path d="M32.1076 3.64738L32.1388 6.75297H30.9095C31.0188 7.12304 31.0763 7.50563 31.0804 7.8905C31.1064 10.2678 29.2196 12.1199 26.7816 12.1199C26.7714 12.1199 26.7609 12.1199 26.7507 12.1198C24.2817 12.1041 22.3797 10.2522 22.3718 7.85703C22.3701 6.75278 22.8174 5.69222 23.617 4.90453C24.4167 4.11683 25.5044 3.66525 26.6452 3.64738C26.7764 3.64738 26.9078 3.65131 27.037 3.66114L32.1076 3.64738Z" fill="white"/>
<path d="M50.7028 13.5796V20.9559H55.1763V23.2009H47.4443V13.5796H50.7028Z" fill="#040404"/>
<path d="M59.2218 18.3502H56.4604C56.4604 17.5841 56.7733 17.0006 57.3992 16.5996C58.0251 16.1988 59.0284 15.9984 60.4092 15.9984C60.8965 15.9935 61.3835 16.0247 61.8659 16.0919C62.216 16.1365 62.5564 16.2358 62.8738 16.3858C63.1053 16.4986 63.3192 16.6425 63.509 16.8134C63.679 16.9803 63.8005 17.1878 63.861 17.4148C63.929 17.6376 63.9775 17.8656 64.0059 18.0963C64.0318 18.3628 64.0433 18.6305 64.0405 18.8981V22.172C64.0331 22.3478 64.0541 22.5236 64.1027 22.6932C64.1733 22.8443 64.2856 22.9737 64.4271 23.0673V23.2009H61.4585L61.3205 22.4526C60.6209 23.0852 59.7142 23.4015 58.6005 23.4013C57.8639 23.4013 57.2495 23.221 56.7572 22.8602C56.2647 22.4994 56.0184 21.976 56.0185 21.29C56.0003 20.8487 56.1339 20.414 56.3983 20.054C56.6364 19.7394 56.9691 19.5037 57.3509 19.3791C57.7571 19.2484 58.1724 19.1457 58.5936 19.0718C59.0044 18.9961 59.4193 18.9426 59.8362 18.9115C60.1639 18.897 60.4863 18.8268 60.7889 18.7043C61.042 18.5931 61.1686 18.4394 61.1686 18.2433C61.1686 17.8603 60.8557 17.6688 60.2297 17.6687C59.613 17.6687 59.277 17.8959 59.2218 18.3502ZM61.1686 20.1008C60.8675 20.225 60.5524 20.3147 60.2297 20.3679C59.9053 20.4189 59.5909 20.5181 59.2977 20.662C59.1954 20.7199 59.1121 20.8045 59.0571 20.9061C59.0022 21.0078 58.978 21.1223 58.9871 21.2366C58.9862 21.3227 59.0087 21.4075 59.0523 21.4825C59.0959 21.5576 59.1591 21.6202 59.2356 21.6642C59.4353 21.7798 59.6659 21.8356 59.8984 21.8245C60.3768 21.8245 60.7082 21.682 60.8925 21.3969C61.0765 21.1119 61.1686 20.6798 61.1686 20.1007V20.1008Z" fill="#040404"/>
<path d="M68.1825 16.1988V17.2945C68.8453 16.4305 69.6598 15.9985 70.6263 15.9984C72.4949 15.9984 73.4293 17.0006 73.4293 19.005V23.2009H70.5573V19.4994C70.5573 18.6265 70.2214 18.1899 69.5494 18.1898C69.1259 18.1898 68.8337 18.3101 68.6727 18.5507C68.5115 18.7912 68.431 19.152 68.431 19.633V23.2009H65.5591V16.1988H68.1825Z" fill="#040404"/>
<path d="M75.0448 23.5617H77.9302C77.9855 23.8824 78.2525 24.0428 78.7312 24.0427C79.1453 24.0427 79.4421 23.9403 79.6215 23.7354C79.8013 23.5304 79.891 23.1786 79.8907 22.6798V22.1052C79.3662 22.6129 78.6759 22.8668 77.8197 22.8668C76.8534 22.8668 76.0871 22.5484 75.5209 21.9114C74.9549 21.2746 74.6718 20.4884 74.6717 19.5529C74.6691 19.117 74.7295 18.683 74.8513 18.2633C74.9689 17.8621 75.1506 17.481 75.3899 17.1341C75.6428 16.7753 75.9909 16.4891 76.3976 16.3057C76.8683 16.0928 77.3834 15.9876 77.9028 15.9984C78.3319 15.9975 78.7544 16.1009 79.1316 16.2989C79.5151 16.4969 79.8459 16.7782 80.0979 17.1209V16.1988H82.6248V21.8379C82.6248 22.2477 82.6132 22.5863 82.5902 22.8535C82.5621 23.1489 82.509 23.4417 82.4315 23.7288C82.3655 24.0111 82.2358 24.2757 82.0517 24.5038C81.8599 24.7227 81.6367 24.9139 81.389 25.0717C81.0676 25.2686 80.7083 25.4004 80.3328 25.4593C79.8314 25.5451 79.3229 25.5854 78.8139 25.5796C77.6264 25.5796 76.7197 25.3858 76.0938 24.9982C75.4679 24.6107 75.1182 24.1319 75.0448 23.5617ZM78.6759 17.9894C77.921 17.9894 77.5436 18.5195 77.5437 19.5796C77.5319 19.9241 77.6334 20.2633 77.8336 20.5484C77.9282 20.6775 78.0551 20.7814 78.2023 20.8503C78.3496 20.9193 78.5125 20.951 78.6759 20.9426C79.09 20.9426 79.3961 20.8045 79.5941 20.5283C79.8006 20.2233 79.9042 19.8638 79.8907 19.4994C79.9062 19.1188 79.8054 18.7424 79.6009 18.417C79.4076 18.132 79.0993 17.9895 78.6759 17.9894V17.9894Z" fill="#040404"/>
<path d="M84.1431 16.1988H87.0151V19.9805C87.0151 20.4437 87.0979 20.7711 87.2636 20.9627C87.4292 21.1543 87.6916 21.2501 88.0506 21.25C88.4461 21.25 88.7269 21.1119 88.8929 20.8357C89.0585 20.5597 89.1413 20.1365 89.1412 19.5662V16.1988H92.0132V23.2009H89.3484V22.1719C88.9985 22.6442 88.6303 22.9672 88.2439 23.1408C87.8573 23.3144 87.3557 23.4013 86.7389 23.4013C85.9287 23.4013 85.2936 23.1564 84.8334 22.6664C84.373 22.1765 84.1428 21.4416 84.1431 20.4616V16.1988Z" fill="#040404"/>
<path d="M96.3899 18.3502H93.6285C93.6285 17.5841 93.9415 17.0006 94.5674 16.5996C95.1933 16.1988 96.1966 15.9984 97.5774 15.9984C98.0647 15.9935 98.5517 16.0247 99.0341 16.0919C99.3842 16.1365 99.7246 16.2358 100.042 16.3858C100.274 16.4985 100.487 16.6425 100.677 16.8134C100.847 16.9803 100.969 17.1878 101.029 17.4148C101.097 17.6376 101.146 17.8656 101.174 18.0963C101.2 18.3628 101.212 18.6305 101.209 18.8981V22.172C101.201 22.3478 101.222 22.5236 101.271 22.6932C101.342 22.8442 101.454 22.9736 101.595 23.0673V23.2009H98.6269L98.4887 22.4526C97.7891 23.0852 96.8824 23.4015 95.7686 23.4013C95.0321 23.4013 94.4177 23.221 93.9254 22.8602C93.433 22.4994 93.1868 21.976 93.1867 21.29C93.1685 20.8487 93.3021 20.414 93.5665 20.054C93.8046 19.7394 94.1373 19.5037 94.5191 19.3791C94.9253 19.2484 95.3406 19.1457 95.7618 19.0718C96.1726 18.9961 96.5874 18.9426 97.0043 18.9115C97.332 18.897 97.6546 18.8269 97.9572 18.7043C98.2102 18.5931 98.3367 18.4394 98.3367 18.2433C98.3367 17.8603 98.0238 17.6688 97.3978 17.6687C96.7812 17.6687 96.4452 17.8959 96.3899 18.3502ZM98.3367 20.1008C98.0356 20.2251 97.7205 20.3147 97.3978 20.3679C97.0734 20.4189 96.759 20.5181 96.4659 20.662C96.3636 20.7199 96.2803 20.8045 96.2254 20.9062C96.1705 21.0078 96.1462 21.1223 96.1553 21.2366C96.1544 21.3227 96.1769 21.4075 96.2205 21.4826C96.2641 21.5576 96.3274 21.6203 96.4039 21.6642C96.6036 21.7798 96.8342 21.8356 97.0666 21.8245C97.545 21.8245 97.8764 21.682 98.0608 21.3969C98.2446 21.1119 98.3366 20.6798 98.3367 20.1007V20.1008Z" fill="#040404"/>
<path d="M102.824 23.5617H105.71C105.765 23.8824 106.032 24.0428 106.511 24.0427C106.925 24.0427 107.222 23.9403 107.401 23.7354C107.581 23.5304 107.67 23.1786 107.671 22.6798V22.1052C107.146 22.6129 106.455 22.8668 105.599 22.8668C104.633 22.8668 103.867 22.5484 103.3 21.9114C102.734 21.2746 102.451 20.4884 102.451 19.5529C102.449 19.117 102.509 18.683 102.631 18.2633C102.748 17.8621 102.93 17.4811 103.169 17.1341C103.422 16.7754 103.77 16.4892 104.177 16.3057C104.648 16.0928 105.163 15.9876 105.682 15.9984C106.111 15.9975 106.534 16.1009 106.911 16.2989C107.295 16.4969 107.625 16.7782 107.877 17.1208V16.1988H110.404V21.8379C110.404 22.2477 110.393 22.5863 110.37 22.8535C110.342 23.1489 110.289 23.4417 110.211 23.7288C110.145 24.0111 110.015 24.2757 109.831 24.5038C109.639 24.7227 109.416 24.914 109.169 25.0717C108.847 25.2686 108.488 25.4004 108.112 25.4593C107.611 25.5451 107.102 25.5854 106.593 25.5796C105.406 25.5796 104.5 25.3858 103.874 24.9982C103.247 24.6107 102.898 24.1319 102.824 23.5617ZM106.455 17.9894C105.701 17.9894 105.323 18.5195 105.323 19.5796C105.311 19.9241 105.413 20.2633 105.613 20.5484C105.708 20.6775 105.835 20.7814 105.982 20.8504C106.129 20.9193 106.292 20.951 106.455 20.9426C106.87 20.9426 107.176 20.8045 107.374 20.5283C107.58 20.2233 107.684 19.8638 107.671 19.4994C107.686 19.1188 107.585 18.7423 107.38 18.417C107.187 18.132 106.879 17.9895 106.455 17.9894Z" fill="#040404"/>
<path d="M120 20.3279H114.518C114.512 20.5116 114.546 20.6945 114.617 20.8648C114.689 21.0351 114.796 21.1891 114.933 21.3168C115.065 21.4432 115.223 21.5426 115.396 21.6091C115.569 21.6757 115.754 21.708 115.941 21.7042C116.456 21.7042 116.815 21.4993 117.018 21.0896H119.765C119.667 21.4674 119.485 21.8201 119.232 22.1235C118.98 22.4268 118.662 22.6736 118.302 22.8468C117.513 23.226 116.642 23.4162 115.761 23.4013C114.555 23.4013 113.568 23.0806 112.8 22.4392C112.031 21.7979 111.646 20.907 111.646 19.7667C111.646 18.6354 112.035 17.7245 112.813 17.034C113.591 16.3436 114.569 15.9984 115.747 15.9984C117.073 15.9984 118.113 16.3881 118.868 17.1676C119.622 17.9472 120 19.0007 120 20.3279ZM114.518 18.9115H117.128C117.128 18.7524 117.094 18.5951 117.029 18.4492C116.964 18.3032 116.868 18.1718 116.748 18.0629C116.634 17.9461 116.495 17.8532 116.342 17.79C116.189 17.7268 116.024 17.6946 115.858 17.6954C115.434 17.6954 115.105 17.8045 114.871 18.0228C114.751 18.1389 114.658 18.278 114.597 18.4311C114.537 18.5841 114.51 18.7478 114.518 18.9115V18.9115Z" fill="#040404"/>
</g>
<defs>
<clipPath id="clip0_1890_4962">
<rect width="120" height="40" fill="white"/>
</clipPath>
</defs>
</svg>
