<svg width="20" height="12" viewBox="0 0 20 12" fill="none" xmlns="http://www.w3.org/2000/svg">
<path d="M17.8021 8.29802C17.8021 8.29802 19.4191 9.89502 19.8191 10.634C19.8269 10.6447 19.8329 10.6565 19.8371 10.669C20.0001 10.942 20.0401 11.156 19.9601 11.314C19.8251 11.575 19.3681 11.706 19.2131 11.717H16.3551C16.1561 11.717 15.7421 11.665 15.2381 11.317C14.8531 11.048 14.4701 10.605 14.0991 10.172C13.5451 9.52902 13.0661 8.97102 12.5811 8.97102C12.5198 8.97089 12.459 8.98103 12.4011 9.00102C12.0341 9.11702 11.5681 9.64002 11.5681 11.033C11.5681 11.469 11.2241 11.717 10.9831 11.717H9.67409C9.22809 11.717 6.90609 11.561 4.84709 9.39002C2.32409 6.73202 0.05809 1.40002 0.03609 1.35302C-0.10491 1.00802 0.19109 0.82002 0.51109 0.82002H3.39709C3.78409 0.82002 3.91009 1.05402 3.99809 1.26402C4.10009 1.50502 4.47809 2.46902 5.09809 3.55202C6.10209 5.31402 6.71909 6.03102 7.21209 6.03102C7.30471 6.03129 7.39577 6.00715 7.47609 5.96102C8.12009 5.60702 8.00009 3.30702 7.97009 2.83302C7.97009 2.74102 7.96909 1.80602 7.63909 1.35402C7.40309 1.03002 7.00109 0.90402 6.75809 0.85802C6.82309 0.76402 6.96109 0.62002 7.13809 0.53502C7.57909 0.31502 8.37609 0.28302 9.16709 0.28302H9.60609C10.4641 0.29502 10.6861 0.35002 10.9981 0.42902C11.6261 0.57902 11.6381 0.98602 11.5831 2.37202C11.5671 2.76802 11.5501 3.21402 11.5501 3.73902C11.5501 3.85102 11.5451 3.97602 11.5451 4.10302C11.5261 4.81402 11.5011 5.61502 12.0031 5.94402C12.0682 5.98458 12.1434 6.00606 12.2201 6.00602C12.3941 6.00602 12.9151 6.00602 14.3281 3.58102C14.9481 2.51002 15.4281 1.24702 15.4611 1.15202C15.4891 1.09902 15.5731 0.95002 15.6751 0.89002C15.7476 0.851415 15.8289 0.83213 15.9111 0.83402H19.3061C19.6761 0.83402 19.9271 0.89002 19.9761 1.03002C20.0581 1.25702 19.9601 1.95002 18.4101 4.04602C18.1491 4.39502 17.9201 4.69702 17.7191 4.96102C16.3141 6.80502 16.3141 6.89802 17.8021 8.29802Z" fill="#78258D"/>
</svg>
