<svg width="30" height="30" viewBox="0 0 30 30" fill="none" xmlns="http://www.w3.org/2000/svg">
<path d="M28.4987 9.95145C28.3806 8.40541 27.2006 6.42332 26.0205 5.47191C24.6935 4.49825 23.3147 3.59836 21.8903 2.77626C20.4766 1.93184 19.0191 1.16433 17.524 0.477032C16.7253 0.148703 15.8689 -0.0131211 15.0065 0.00132895C14.1438 -0.0169389 13.2866 0.145029 12.489 0.477032C10.9941 1.16482 9.53666 1.93232 8.12276 2.77626C5.84128 4.16373 3.99251 5.47191 3.99251 5.47191C3.06481 6.25435 2.3521 7.25148 1.90822 8.36749C1.78473 8.67799 2.02465 8.99989 2.3588 8.99989H3.83955C4.21109 8.99989 4.54627 8.78991 4.75118 8.47998C5.06913 7.99908 5.45693 7.5628 5.90566 7.18694C5.90566 7.18694 7.43216 6.11423 9.31592 4.97651C10.4834 4.28447 11.6868 3.65513 12.9211 3.09114C13.5796 2.8189 14.2873 2.68608 14.9997 2.70106C15.7118 2.68921 16.4189 2.82191 17.0783 3.09114C18.3128 3.65473 19.5162 4.28408 20.6835 4.97651C21.8596 5.65063 22.998 6.38854 24.0937 7.18694C25.0681 7.96709 26.0424 9.59241 26.1399 10.8602C26.1399 10.8602 26.3672 12.7455 26.3997 14.9787C26.3977 16.3579 26.3218 17.736 26.1724 19.107C25.9457 20.5426 25.2073 21.8475 24.0937 22.7802C24.0937 22.7802 22.5672 23.8855 20.6835 25.0232C19.516 25.7152 18.3126 26.3446 17.0783 26.9085C16.4198 27.1808 15.712 27.3136 14.9997 27.2986C14.2883 27.3136 13.5812 27.1842 12.9211 26.9183C11.6866 26.3547 10.4831 25.7254 9.31592 25.0329C7.43216 23.9277 5.90566 22.79 5.90566 22.79C5.51136 22.4743 5.11706 22.0202 4.77872 21.5074C4.57749 21.2023 4.24583 20.9998 3.88043 20.9998H2.37138C2.03295 20.9998 1.79391 21.3289 1.92772 21.6398C2.41073 22.7618 3.20162 23.8624 3.99251 24.5C3.99251 24.5 5.84128 25.8875 8.12276 27.2353C9.5364 28.0797 10.9939 28.8472 12.489 29.5345C13.2885 29.8588 14.1449 30.0166 15.0065 29.9984C15.8693 30.0166 16.7264 29.8547 17.524 29.5226C19.0189 28.8349 20.4763 28.0674 21.8903 27.2234C24.1717 25.836 26.0205 24.4881 26.0205 24.4881C27.3692 23.3506 28.2635 21.7593 28.538 20.0086C28.719 18.3366 28.8109 16.656 28.8133 14.9741C28.774 12.2507 28.4987 9.95145 28.4987 9.95145Z" fill="url(#paint0_linear_2453_1540)"/>
<path d="M1.19971 11.7015C1.19971 11.3701 1.46834 11.1015 1.79971 11.1015H11.0997C11.4311 11.1015 11.6997 11.3701 11.6997 11.7015V13.5015C11.6997 13.8329 11.4311 14.1015 11.0997 14.1015H1.19971V11.7015Z" fill="#0066B3"/>
<path d="M1.19971 15.9011H20.0997C20.4311 15.9011 20.6997 16.1698 20.6997 16.5011V18.3011C20.6997 18.6325 20.4311 18.9011 20.0997 18.9011H1.79971C1.46834 18.9011 1.19971 18.6325 1.19971 18.3011V15.9011Z" fill="#EE2F53"/>
<defs>
<linearGradient id="paint0_linear_2453_1540" x1="15.2504" y1="-6.10352e-05" x2="15.2504" y2="29.9998" gradientUnits="userSpaceOnUse">
<stop stop-color="#0066B3"/>
<stop offset="0.354167" stop-color="#0066B3"/>
<stop offset="0.6875" stop-color="#EE2F53"/>
<stop offset="1" stop-color="#EE2F53"/>
</linearGradient>
</defs>
</svg>
