<svg width="60" height="60" viewBox="0 0 60 60" fill="none" xmlns="http://www.w3.org/2000/svg">
<circle opacity="0.2" cx="30" cy="30" r="30" fill="#2E90D1"/>
<path d="M43.5 21H37.5V19.5C37.5 18.3065 37.0259 17.1619 36.182 16.318C35.3381 15.4741 34.1935 15 33 15H27C25.8065 15 24.6619 15.4741 23.818 16.318C22.9741 17.1619 22.5 18.3065 22.5 19.5V21H16.5C16.1022 21 15.7206 21.158 15.4393 21.4393C15.158 21.7206 15 22.1022 15 22.5V28.5C15.0034 29.1291 15.1386 29.7504 15.397 30.324C15.6553 30.8976 16.0311 31.4106 16.5 31.83V40.5C16.5 41.6935 16.9741 42.8381 17.818 43.682C18.6619 44.5259 19.8065 45 21 45H39C40.1935 45 41.3381 44.5259 42.182 43.682C43.0259 42.8381 43.5 41.6935 43.5 40.5V31.83C43.9689 31.4106 44.3447 30.8976 44.603 30.324C44.8614 29.7504 44.9966 29.1291 45 28.5V22.5C45 22.1022 44.842 21.7206 44.5607 21.4393C44.2794 21.158 43.8978 21 43.5 21ZM25.5 19.5C25.5 19.1022 25.658 18.7206 25.9393 18.4393C26.2206 18.158 26.6022 18 27 18H33C33.3978 18 33.7794 18.158 34.0607 18.4393C34.342 18.7206 34.5 19.1022 34.5 19.5V21H25.5V19.5ZM40.5 40.5C40.5 40.8978 40.342 41.2794 40.0607 41.5607C39.7794 41.842 39.3978 42 39 42H21C20.6022 42 20.2206 41.842 19.9393 41.5607C19.658 41.2794 19.5 40.8978 19.5 40.5V33H22.5V34.5C22.5 34.8978 22.658 35.2794 22.9393 35.5607C23.2206 35.842 23.6022 36 24 36C24.3978 36 24.7794 35.842 25.0607 35.5607C25.342 35.2794 25.5 34.8978 25.5 34.5V33H34.5V34.5C34.5 34.8978 34.658 35.2794 34.9393 35.5607C35.2206 35.842 35.6022 36 36 36C36.3978 36 36.7794 35.842 37.0607 35.5607C37.342 35.2794 37.5 34.8978 37.5 34.5V33H40.5V40.5ZM42 28.5C42 28.8978 41.842 29.2794 41.5607 29.5607C41.2794 29.842 40.8978 30 40.5 30H37.5V28.5C37.5 28.1022 37.342 27.7206 37.0607 27.4393C36.7794 27.158 36.3978 27 36 27C35.6022 27 35.2206 27.158 34.9393 27.4393C34.658 27.7206 34.5 28.1022 34.5 28.5V30H25.5V28.5C25.5 28.1022 25.342 27.7206 25.0607 27.4393C24.7794 27.158 24.3978 27 24 27C23.6022 27 23.2206 27.158 22.9393 27.4393C22.658 27.7206 22.5 28.1022 22.5 28.5V30H19.5C19.1022 30 18.7206 29.842 18.4393 29.5607C18.158 29.2794 18 28.8978 18 28.5V24H42V28.5Z" fill="#2E90D1"/>
</svg>
