<svg width="60" height="60" viewBox="0 0 60 60" fill="none" xmlns="http://www.w3.org/2000/svg">
<circle opacity="0.2" cx="30" cy="30" r="30" fill="#78258D"/>
<path d="M27.435 29.565C27.5744 29.7056 27.7403 29.8172 27.9231 29.8933C28.1059 29.9695 28.302 30.0087 28.5 30.0087C28.698 30.0087 28.8941 29.9695 29.0769 29.8933C29.2597 29.8172 29.4256 29.7056 29.565 29.565L35.565 23.565C35.7049 23.4251 35.8158 23.2591 35.8915 23.0764C35.9672 22.8936 36.0061 22.6978 36.0061 22.5C36.0061 22.3022 35.9672 22.1064 35.8915 21.9236C35.8158 21.7409 35.7049 21.5749 35.565 21.435C35.4251 21.2951 35.2591 21.1842 35.0764 21.1085C34.8936 21.0328 34.6978 20.9939 34.5 20.9939C34.3022 20.9939 34.1064 21.0328 33.9236 21.1085C33.7409 21.1842 33.5749 21.2951 33.435 21.435L28.5 26.385L26.565 24.435C26.2825 24.1525 25.8995 23.9939 25.5 23.9939C25.1005 23.9939 24.7175 24.1525 24.435 24.435C24.1525 24.7175 23.9939 25.1005 23.9939 25.5C23.9939 25.8995 24.1525 26.2825 24.435 26.565L27.435 29.565ZM43.5 33H42V18H43.5C43.8978 18 44.2794 17.842 44.5607 17.5607C44.842 17.2794 45 16.8978 45 16.5C45 16.1022 44.842 15.7206 44.5607 15.4393C44.2794 15.158 43.8978 15 43.5 15H16.5C16.1022 15 15.7206 15.158 15.4393 15.4393C15.158 15.7206 15 16.1022 15 16.5C15 16.8978 15.158 17.2794 15.4393 17.5607C15.7206 17.842 16.1022 18 16.5 18H18V33H16.5C16.1022 33 15.7206 33.158 15.4393 33.4393C15.158 33.7206 15 34.1022 15 34.5C15 34.8978 15.158 35.2794 15.4393 35.5607C15.7206 35.842 16.1022 36 16.5 36H28.5V37.725L21.675 42.225C21.395 42.3983 21.1798 42.659 21.0627 42.9667C20.9455 43.2745 20.9328 43.6122 21.0267 43.9279C21.1205 44.2435 21.3156 44.5195 21.5819 44.7133C21.8482 44.907 22.1708 45.0078 22.5 45C22.7949 45.0034 23.0834 44.9142 23.325 44.745L28.5 41.325V43.5C28.5 43.8978 28.658 44.2794 28.9393 44.5607C29.2206 44.842 29.6022 45 30 45C30.3978 45 30.7794 44.842 31.0607 44.5607C31.342 44.2794 31.5 43.8978 31.5 43.5V41.325L36.675 44.745C36.9166 44.9142 37.2051 45.0034 37.5 45C37.8205 44.9975 38.1317 44.8925 38.3882 44.7002C38.6446 44.508 38.8327 44.2387 38.9249 43.9318C39.0172 43.6249 39.0087 43.2965 38.9007 42.9947C38.7928 42.693 38.591 42.4337 38.325 42.255L31.5 37.755V36H43.5C43.8978 36 44.2794 35.842 44.5607 35.5607C44.842 35.2794 45 34.8978 45 34.5C45 34.1022 44.842 33.7206 44.5607 33.4393C44.2794 33.158 43.8978 33 43.5 33ZM39 33H21V18H39V33Z" fill="#78258D"/>
</svg>
