<svg width="60" height="60" viewBox="0 0 60 60" fill="none" xmlns="http://www.w3.org/2000/svg">
<circle opacity="0.2" cx="30" cy="30" r="30" fill="#FFB800"/>
<path d="M30 15C26.8174 15 23.7652 16.2643 21.5147 18.5147C19.2643 20.7652 18 23.8174 18 27C18 35.1 28.575 44.25 29.025 44.64C29.2967 44.8724 29.6425 45.0001 30 45.0001C30.3575 45.0001 30.7033 44.8724 30.975 44.64C31.5 44.25 42 35.1 42 27C42 23.8174 40.7357 20.7652 38.4853 18.5147C36.2348 16.2643 33.1826 15 30 15ZM30 41.475C26.805 38.475 21 32.01 21 27C21 24.6131 21.9482 22.3239 23.636 20.636C25.3239 18.9482 27.6131 18 30 18C32.3869 18 34.6761 18.9482 36.364 20.636C38.0518 22.3239 39 24.6131 39 27C39 32.01 33.195 38.49 30 41.475ZM30 21C28.8133 21 27.6533 21.3519 26.6666 22.0112C25.6799 22.6705 24.9108 23.6075 24.4567 24.7039C24.0026 25.8003 23.8838 27.0067 24.1153 28.1705C24.3468 29.3344 24.9182 30.4035 25.7574 31.2426C26.5965 32.0818 27.6656 32.6532 28.8295 32.8847C29.9933 33.1162 31.1997 32.9974 32.2961 32.5433C33.3925 32.0892 34.3295 31.3201 34.9888 30.3334C35.6481 29.3467 36 28.1867 36 27C36 25.4087 35.3679 23.8826 34.2426 22.7574C33.1174 21.6321 31.5913 21 30 21ZM30 30C29.4067 30 28.8266 29.8241 28.3333 29.4944C27.8399 29.1648 27.4554 28.6962 27.2284 28.1481C27.0013 27.5999 26.9419 26.9967 27.0576 26.4147C27.1734 25.8328 27.4591 25.2982 27.8787 24.8787C28.2982 24.4591 28.8328 24.1734 29.4147 24.0576C29.9967 23.9419 30.5999 24.0013 31.1481 24.2284C31.6962 24.4554 32.1648 24.8399 32.4944 25.3333C32.8241 25.8266 33 26.4067 33 27C33 27.7956 32.6839 28.5587 32.1213 29.1213C31.5587 29.6839 30.7956 30 30 30Z" fill="#FFB800"/>
</svg>
