<svg width="20" height="20" viewBox="0 0 20 20" fill="none" xmlns="http://www.w3.org/2000/svg">
<g clip-path="url(#clip0_1802_163)">
<path d="M17.8021 12.2982C17.8021 12.2982 19.4191 13.8952 19.8191 14.6342C19.8269 14.6449 19.8329 14.6567 19.8371 14.6692C20.0001 14.9422 20.0401 15.1562 19.9601 15.3142C19.8251 15.5752 19.3681 15.7062 19.2131 15.7172H16.3551C16.1561 15.7172 15.7421 15.6652 15.2381 15.3172C14.8531 15.0482 14.4701 14.6052 14.0991 14.1722C13.5451 13.5292 13.0661 12.9712 12.5811 12.9712C12.5198 12.9711 12.459 12.9812 12.4011 13.0012C12.0341 13.1172 11.5681 13.6402 11.5681 15.0332C11.5681 15.4692 11.2241 15.7172 10.9831 15.7172H9.67409C9.22809 15.7172 6.90609 15.5612 4.84709 13.3902C2.32409 10.7322 0.05809 5.4002 0.03609 5.3532C-0.10491 5.0082 0.19109 4.8202 0.51109 4.8202H3.39709C3.78409 4.8202 3.91009 5.0542 3.99809 5.2642C4.10009 5.5052 4.47809 6.4692 5.09809 7.5522C6.10209 9.3142 6.71909 10.0312 7.21209 10.0312C7.30471 10.0315 7.39577 10.0073 7.47609 9.9612C8.12009 9.6072 8.00009 7.3072 7.97009 6.8332C7.97009 6.7412 7.96909 5.8062 7.63909 5.3542C7.40309 5.0302 7.00109 4.9042 6.75809 4.8582C6.82309 4.7642 6.96109 4.6202 7.13809 4.5352C7.57909 4.3152 8.37609 4.2832 9.16709 4.2832H9.60609C10.4641 4.2952 10.6861 4.3502 10.9981 4.4292C11.6261 4.5792 11.6381 4.9862 11.5831 6.3722C11.5671 6.7682 11.5501 7.2142 11.5501 7.7392C11.5501 7.8512 11.5451 7.9762 11.5451 8.1032C11.5261 8.8142 11.5011 9.6152 12.0031 9.9442C12.0682 9.98476 12.1434 10.0062 12.2201 10.0062C12.3941 10.0062 12.9151 10.0062 14.3281 7.5812C14.9481 6.5102 15.4281 5.2472 15.4611 5.1522C15.4891 5.0992 15.5731 4.9502 15.6751 4.8902C15.7476 4.8516 15.8289 4.83231 15.9111 4.8342H19.3061C19.6761 4.8342 19.9271 4.8902 19.9761 5.0302C20.0581 5.2572 19.9601 5.9502 18.4101 8.0462C18.1491 8.3952 17.9201 8.6972 17.7191 8.9612C16.3141 10.8052 16.3141 10.8982 17.8021 12.2982Z" fill="white"/>
</g>
<defs>
<clipPath id="clip0_1802_163">
<rect width="20" height="20" fill="white"/>
</clipPath>
</defs>
</svg>
